<?xml version="1.0" encoding="UTF-8"?>
<svg version="1.1" xmlns="http://www.w3.org/2000/svg" width="32" height="32">
<path d="M0 0 C10.56 0 21.12 0 32 0 C32 10.56 32 21.12 32 32 C21.44 32 10.88 32 0 32 C0 21.44 0 10.88 0 0 Z " fill="#41321C" transform="translate(0,0)"/>
<path d="M0 0 C4.29 0 8.58 0 13 0 C12.67 0.66 12.34 1.32 12 2 C8.9375 2.625 8.9375 2.625 6 3 C5.61781233 4.65614657 5.28604898 6.32457024 5 8 C5.33 8.33 5.66 8.66 6 9 C5.59841673 13.08276326 5.15147536 17.05208447 4 21 C5.32 21.33 6.64 21.66 8 22 C8 22.99 8 23.98 8 25 C8.66 24.67 9.32 24.34 10 24 C10.99 23.67 11.98 23.34 13 23 C12.6875 24.875 12.6875 24.875 12 27 C11.01 27.66 10.02 28.32 9 29 C10.32 29.99 11.64 30.98 13 32 C8.71 32 4.42 32 0 32 C0 21.44 0 10.88 0 0 Z " fill="#957228" transform="translate(0,0)"/>
<path d="M0 0 C0.66 0.33 1.32 0.66 2 1 C2.02698189 2.62490954 2.04638757 4.24994633 2.0625 5.875 C2.07410156 6.77992187 2.08570313 7.68484375 2.09765625 8.6171875 C2 11 2 11 1 13 C1.165 14.051875 1.33 15.10375 1.5 16.1875 C2.00989735 20.0754673 1.70474217 23.16307043 1 27 C-0.65 27.33 -2.3 27.66 -4 28 C-4.33 27.34 -4.66 26.68 -5 26 C-3.68 25.34 -2.36 24.68 -1 24 C-1 23.67 -1 23.34 -1 23 C-2.32 23.33 -3.64 23.66 -5 24 C-5.4021875 23.0409375 -5.4021875 23.0409375 -5.8125 22.0625 C-6.88667752 19.66868314 -6.88667752 19.66868314 -10 19 C-9.855625 18.505 -9.71125 18.01 -9.5625 17.5 C-7.86081838 10.22456417 -7.86081838 10.22456417 -9 3 C-5.93747873 0.27775887 -4.09135874 -0.43066934 0 0 Z " fill="#2B2A1B" transform="translate(13,2)"/>
<path d="M0 0 C4.62 0 9.24 0 14 0 C14 10.56 14 21.12 14 32 C10.04 32 6.08 32 2 32 C2.99 31.01 3.98 30.02 5 29 C4.67 28.67 4.34 28.34 4 28 C3.95936168 26.33382885 3.957279 24.66611905 4 23 C4.99 23.33 5.98 23.66 7 24 C6.34 24 5.68 24 5 24 C5 24.99 5 25.98 5 27 C5.66 27 6.32 27 7 27 C7 27.66 7 28.32 7 29 C8.65 29 10.3 29 12 29 C11.814375 28.05125 11.62875 27.1025 11.4375 26.125 C11 23 11 23 12 21 C12.30799528 15.8818431 12.13075907 11.00764733 11 6 C11.33 5.67 11.66 5.34 12 5 C11.13375 4.71125 10.2675 4.4225 9.375 4.125 C6.25 3.08333333 3.125 2.04166667 0 1 C0 0.67 0 0.34 0 0 Z " fill="#F8E5B7" transform="translate(18,0)"/>
<path d="M0 0 C4.29 0 8.58 0 13 0 C12.67 0.66 12.34 1.32 12 2 C9.07286212 2.94934202 7.57168632 3.23176473 4.6875 2.0625 C4.130625 1.711875 3.57375 1.36125 3 1 C3.020625 2.27875 3.04125 3.5575 3.0625 4.875 C3.125 8.75 3.125 8.75 2 11 C1.46557341 16.8786925 1.70400324 23.49943021 4 29 C7.00419641 30.0013988 9.87709365 30.51421457 13 31 C13 31.33 13 31.66 13 32 C8.71 32 4.42 32 0 32 C0 21.44 0 10.88 0 0 Z " fill="#F7E6B9" transform="translate(0,0)"/>
<path d="M0 0 C1.9609375 0.05078125 1.9609375 0.05078125 4.375 0.3125 C5.16648437 0.39113281 5.95796875 0.46976563 6.7734375 0.55078125 C9 1 9 1 12 3 C11.67 3.99 11.34 4.98 11 6 C10.01 6 9.02 6 8 6 C7.67 5.34 7.34 4.68 7 4 C6.01 4.33 5.02 4.66 4 5 C4.185625 5.94875 4.37125 6.8975 4.5625 7.875 C5 11 5 11 4 13 C5.32 13.66 6.64 14.32 8 15 C6.68 17.31 5.36 19.62 4 22 C2 21 2 21 0.8125 17.625 C0 14 0 14 1 11 C1.25298894 7.03650664 1.09898432 4.41084952 -1 1 C-0.67 0.67 -0.34 0.34 0 0 Z " fill="#CC8F18" transform="translate(13,0)"/>
<path d="M0 0 C0.13277344 0.62648438 0.26554687 1.25296875 0.40234375 1.8984375 C0.57894531 2.71570313 0.75554688 3.53296875 0.9375 4.375 C1.11152344 5.18710937 1.28554688 5.99921875 1.46484375 6.8359375 C1.92330693 9.029463 1.92330693 9.029463 3 11 C-0.6413547 13.33046701 -3.7524747 13.30891093 -8 13 C-8.99 12.34 -9.98 11.68 -11 11 C-9.68 10.67 -8.36 10.34 -7 10 C-7.103125 8.906875 -7.20625 7.81375 -7.3125 6.6875 C-7.209375 5.470625 -7.10625 4.25375 -7 3 C-4.60259082 1.04421883 -3.12413392 0 0 0 Z " fill="#594A2B" transform="translate(21,19)"/>
<path d="M0 0 C0.99 0.66 1.98 1.32 3 2 C5.62531524 2.16713569 5.62531524 2.16713569 8 2 C8 2.66 8 3.32 8 4 C8.66 4 9.32 4 10 4 C9.67 7.63 9.34 11.26 9 15 C7.35 15.33 5.7 15.66 4 16 C3.67 15.34 3.34 14.68 3 14 C4.32 13.34 5.64 12.68 7 12 C7 11.67 7 11.34 7 11 C5.68 11.33 4.36 11.66 3 12 C2.731875 11.360625 2.46375 10.72125 2.1875 10.0625 C1.11332248 7.66868314 1.11332248 7.66868314 -2 7 C-1.42415568 4.61435923 -0.77772405 2.33317216 0 0 Z " fill="#2A5542" transform="translate(5,14)"/>
<path d="M0 0 C0.66 0 1.32 0 2 0 C4.02240405 6.06721215 3.23871337 12.80643317 2 19 C2 19.66 2 20.32 2 21 C0.35 21 -1.3 21 -3 21 C-3 20.34 -3 19.68 -3 19 C-3.66 19 -4.32 19 -5 19 C-5 18.01 -5 17.02 -5 16 C-3.35 15.67 -1.7 15.34 0 15 C0 14.01 0 13.02 0 12 C-0.66 12 -1.32 12 -2 12 C-1.67 11.01 -1.34 10.02 -1 9 C-1.185625 7.824375 -1.37125 6.64875 -1.5625 5.4375 C-1.706875 4.303125 -1.85125 3.16875 -2 2 C-1.34 1.34 -0.68 0.68 0 0 Z " fill="#A18435" transform="translate(28,8)"/>
<path d="M0 0 C4.62 0 9.24 0 14 0 C14 5.61 14 11.22 14 17 C13.67 17 13.34 17 13 17 C12.63896464 15.18885568 12.28634496 13.37603177 11.9375 11.5625 C11.74027344 10.55316406 11.54304688 9.54382813 11.33984375 8.50390625 C11.22769531 7.67761719 11.11554687 6.85132813 11 6 C11.33 5.67 11.66 5.34 12 5 C11.13375 4.71125 10.2675 4.4225 9.375 4.125 C6.25 3.08333333 3.125 2.04166667 0 1 C0 0.67 0 0.34 0 0 Z " fill="#F4E2B6" transform="translate(18,0)"/>
<path d="M0 0 C-0.99 0.495 -0.99 0.495 -2 1 C-2 1.66 -2 2.32 -2 3 C-1.01 2.67 -0.02 2.34 1 2 C0.67 3.32 0.34 4.64 0 6 C-2.97 6 -5.94 6 -9 6 C-8.34 5.67 -7.68 5.34 -7 5 C-7 4.01 -7 3.02 -7 2 C-7.99 2.33 -8.98 2.66 -10 3 C-9.67 2.01 -9.34 1.02 -9 0 C-5.62182575 -0.84454356 -3.32534757 -1.10844919 0 0 Z " fill="#1E5A65" transform="translate(28,17)"/>
<path d="M0 0 C4.75 -0.125 4.75 -0.125 7 1 C7 4.3 7 7.6 7 11 C6.01 11.495 6.01 11.495 5 12 C4.67 11.01 4.34 10.02 4 9 C3.01 8.67 2.02 8.34 1 8 C1.33 6.35 1.66 4.7 2 3 C1.01 2.67 0.02 2.34 -1 2 C-0.67 1.34 -0.34 0.68 0 0 Z " fill="#5B4423" transform="translate(8,2)"/>
<path d="M0 0 C1.9609375 0.05078125 1.9609375 0.05078125 4.375 0.3125 C5.16648437 0.39113281 5.95796875 0.46976563 6.7734375 0.55078125 C9 1 9 1 12 3 C11.67 3.99 11.34 4.98 11 6 C10.01 6 9.02 6 8 6 C7.67 5.34 7.34 4.68 7 4 C4.69 4.33 2.38 4.66 0 5 C-0.5625 3.0625 -0.5625 3.0625 -1 1 C-0.67 0.67 -0.34 0.34 0 0 Z " fill="#A37933" transform="translate(13,0)"/>
<path d="M0 0 C1.9375 0.8125 1.9375 0.8125 4 2 C4.33 2.99 4.66 3.98 5 5 C4.34 5 3.68 5 3 5 C3.99 6.32 4.98 7.64 6 9 C4.68 9 3.36 9 2 9 C1.67 8.01 1.34 7.02 1 6 C0.01 5.67 -0.98 5.34 -2 5 C-1 2 -1 2 0 0 Z " fill="#322D22" transform="translate(6,3)"/>
<path d="M0 0 C2 2 2 2 2 4 C2.66 3.67 3.32 3.34 4 3 C4.99 2.67 5.98 2.34 7 2 C6.875 3.875 6.875 3.875 6 6 C2.9375 7.25 2.9375 7.25 0 8 C-0.66 6.02 -1.32 4.04 -2 2 C-1.34 1.34 -0.68 0.68 0 0 Z " fill="#D2B86B" transform="translate(6,21)"/>
<path d="M0 0 C1.98 0 3.96 0 6 0 C6 2.31 6 4.62 6 7 C4.35 7.33 2.7 7.66 1 8 C0.67 7.34 0.34 6.68 0 6 C1.32 5.34 2.64 4.68 4 4 C4 3.67 4 3.34 4 3 C2.68 3.33 1.36 3.66 0 4 C0 2.68 0 1.36 0 0 Z " fill="#554D30" transform="translate(8,22)"/>
<path d="M0 0 C0.9075 0.165 1.815 0.33 2.75 0.5 C6.11087503 1.10137146 6.11087503 1.10137146 10 1 C10.33 1.99 10.66 2.98 11 4 C7.7 4 4.4 4 1 4 C0.67 2.68 0.34 1.36 0 0 Z " fill="#315F47" transform="translate(3,18)"/>
<path d="M0 0 C0.99 0.33 1.98 0.66 3 1 C2.34 1 1.68 1 1 1 C1 1.99 1 2.98 1 4 C1.66 4 2.32 4 3 4 C3 4.66 3 5.32 3 6 C4.98 5.67 6.96 5.34 9 5 C9 5.66 9 6.32 9 7 C5.17679443 8.42258812 2.08718695 9.24042276 -2 9 C-1.01 8.01 -0.02 7.02 1 6 C0.67 5.67 0.34 5.34 0 5 C-0.04063832 3.33382885 -0.042721 1.66611905 0 0 Z " fill="#D7C58D" transform="translate(22,23)"/>
<path d="M0 0 C0.99 0.33 1.98 0.66 3 1 C3 1.99 3 2.98 3 4 C3.3062434 5.33981486 3.63451555 6.67511887 4 8 C1.6875 8.625 1.6875 8.625 -1 9 C-1.99 8.34 -2.98 7.68 -4 7 C-2.68 6.67 -1.36 6.34 0 6 C0 4.02 0 2.04 0 0 Z " fill="#B09247" transform="translate(14,23)"/>
<path d="M0 0 C1.32 0.33 2.64 0.66 4 1 C3.16651177 6.13984409 1.15441478 8.79411363 -2 13 C-1.34 8.71 -0.68 4.42 0 0 Z " fill="#9C7648" transform="translate(3,1)"/>
<path d="M0 0 C4.29 0 8.58 0 13 0 C12.67 0.66 12.34 1.32 12 2 C9.34793177 2.78845272 7.57102375 3.15115335 4.875 2.4375 C3.946875 2.2209375 3.946875 2.2209375 3 2 C2.01 2.66 1.02 3.32 0 4 C0 2.68 0 1.36 0 0 Z " fill="#EEDDB2" transform="translate(0,0)"/>
<path d="M0 0 C0 1.65 0 3.3 0 5 C0.99 4.67 1.98 4.34 3 4 C3 4.66 3 5.32 3 6 C1.35 6 -0.3 6 -2 6 C-2 5.34 -2 4.68 -2 4 C-2.66 4 -3.32 4 -4 4 C-4 3.01 -4 2.02 -4 1 C-2 0 -2 0 0 0 Z " fill="#7A6739" transform="translate(27,23)"/>
<path d="M0 0 C2.31 0 4.62 0 7 0 C6.67 1.32 6.34 2.64 6 4 C4.02 4 2.04 4 0 4 C0 2.68 0 1.36 0 0 Z " fill="#577961" transform="translate(22,19)"/>
<path d="M0 0 C0.33 0 0.66 0 1 0 C1 3.3 1 6.6 1 10 C0.34 9.67 -0.32 9.34 -1 9 C-1.75 5.5625 -1.75 5.5625 -2 2 C-1.34 1.34 -0.68 0.68 0 0 Z " fill="#C88512" transform="translate(28,8)"/>
<path d="M0 0 C0.66 0 1.32 0 2 0 C2.1875 3.375 2.1875 3.375 2 7 C1.01 7.66 0.02 8.32 -1 9 C-1.09765625 2.84765625 -1.09765625 2.84765625 -1 1 C-0.67 0.67 -0.34 0.34 0 0 Z " fill="#AB9B57" transform="translate(19,19)"/>
<path d="M0 0 C0.33 0 0.66 0 1 0 C1 4.29 1 8.58 1 13 C0.67 13 0.34 13 0 13 C-0.38885039 11.21128822 -0.76069196 9.41887126 -1.125 7.625 C-1.33382813 6.62726562 -1.54265625 5.62953125 -1.7578125 4.6015625 C-1.83773438 3.74304688 -1.91765625 2.88453125 -2 2 C-1.34 1.34 -0.68 0.68 0 0 Z " fill="#ECD6AD" transform="translate(31,4)"/>
<path d="M0 0 C0.66 0.33 1.32 0.66 2 1 C1.4140625 7.15234375 1.4140625 7.15234375 1 9 C0.01 9.495 0.01 9.495 -1 10 C-0.67 6.7 -0.34 3.4 0 0 Z " fill="#C88610" transform="translate(4,8)"/>
<path d="M0 0 C0.99 0.33 1.98 0.66 3 1 C3 1.99 3 2.98 3 4 C3.99 4.33 4.98 4.66 6 5 C4.125 5.625 4.125 5.625 2 6 C1.34 5.34 0.68 4.68 0 4 C0 2.68 0 1.36 0 0 Z " fill="#8A7B51" transform="translate(3,25)"/>
<path d="M0 0 C-2.35968744 2.09749995 -3.54616994 2.96905704 -6.75 3.1875 C-7.86375 3.0946875 -7.86375 3.0946875 -9 3 C-8.01 2.67 -7.02 2.34 -6 2 C-6 1.34 -6 0.68 -6 0 C-3 -1 -3 -1 0 0 Z " fill="#80632A" transform="translate(24,29)"/>
<path d="M0 0 C-1.65 1.65 -3.3 3.3 -5 5 C-5 3.68 -5 2.36 -5 1 C-5.66 0.67 -6.32 0.34 -7 0 C-3.86650268 -1.04449911 -3.01031744 -0.93423645 0 0 Z " fill="#3E3430" transform="translate(25,8)"/>
<path d="M0 0 C2 2 2 2 2.125 5.125 C2.08375 6.07375 2.0425 7.0225 2 8 C1.67 7.34 1.34 6.68 1 6 C0.01 5.67 -0.98 5.34 -2 5 C-1 2 -1 2 0 0 Z " fill="#412F1B" transform="translate(6,3)"/>
</svg>
