<?xml version="1.0" encoding="UTF-8"?>
<svg version="1.1" xmlns="http://www.w3.org/2000/svg" width="32" height="32">
<path d="M0 0 C10.56 0 21.12 0 32 0 C32 10.56 32 21.12 32 32 C21.44 32 10.88 32 0 32 C0 21.44 0 10.88 0 0 Z " fill="#817D4D" transform="translate(0,0)"/>
<path d="M0 0 C10.56 0 21.12 0 32 0 C32 10.56 32 21.12 32 32 C21.44 32 10.88 32 0 32 C0 21.44 0 10.88 0 0 Z M7 3 C6.01 2.67 5.02 2.34 4 2 C1.57341988 11.35966618 1.57341988 18.64033382 4 28 C12.7302613 30.49436037 19.2697387 30.49436037 28 28 C27.01 27.67 26.02 27.34 25 27 C25.99 26.34 26.98 25.68 28 25 C30.90931755 18.45403552 29.77500763 11.96459556 29 5 C18.06394871 1.07492614 18.06394871 1.07492614 7 3 Z " fill="#FCE7B8" transform="translate(0,0)"/>
<path d="M0 0 C1.32 0.33 2.64 0.66 4 1 C4 1.66 4 2.32 4 3 C4.7425 2.484375 5.485 1.96875 6.25 1.4375 C9 0 9 0 11.171875 0.41015625 C11.77515625 0.60480469 12.3784375 0.79945313 13 1 C14.57967529 15.19573061 14.57967529 15.19573061 12 21 C11.01 21.66 10.02 22.32 9 23 C9.99 23.33 10.98 23.66 12 24 C6.45211682 25.58510948 1.77596312 26.39834228 -4 26 C-4.66 25.34 -5.32 24.68 -6 24 C-4.35 23.34 -2.7 22.68 -1 22 C-1 21.01 -1 20.02 -1 19 C0.65 18.67 2.3 18.34 4 18 C3.34 18 2.68 18 2 18 C2 15.33333333 2 12.66666667 2 10 C1.7834375 9.13375 1.7834375 9.13375 1.5625 8.25 C0.88033311 5.52133242 0.44173092 2.77659435 0 0 Z " fill="#857438" transform="translate(16,4)"/>
<path d="M0 0 C0.66 0.33 1.32 0.66 2 1 C1.814375 1.53625 1.62875 2.0725 1.4375 2.625 C0.88743872 5.61104694 1.49335587 8.02346574 2 11 C1.67 11.99 1.34 12.98 1 14 C1 14.99 1 15.98 1 17 C-3.455 18.485 -3.455 18.485 -8 20 C-8.33 18.68 -8.66 17.36 -9 16 C-8.34 15.01 -7.68 14.02 -7 13 C-7.18232592 9.17251095 -7.18232592 9.17251095 -9 6 C-9.04063832 4.33382885 -9.042721 2.66611905 -9 1 C-8.2575 1.20625 -7.515 1.4125 -6.75 1.625 C-3.62463243 2.05118649 -2.67770324 1.47735351 0 0 Z " fill="#332E1E" transform="translate(13,1)"/>
<path d="M0 0 C1.32 0.33 2.64 0.66 4 1 C4 1.66 4 2.32 4 3 C4.7425 2.484375 5.485 1.96875 6.25 1.4375 C9 0 9 0 11.3125 0.3125 C11.869375 0.539375 12.42625 0.76625 13 1 C12.34 2.32 11.68 3.64 11 5 C10.34 5 9.68 5 9 5 C9.20625 6.27875 9.4125 7.5575 9.625 8.875 C9.9765625 11.0546875 9.9765625 11.0546875 10 13 C9.34 13.66 8.68 14.32 8 15 C7.01 15 6.02 15 5 15 C4.67 15.66 4.34 16.32 4 17 C4 16.01 4 15.02 4 14 C3.34 14 2.68 14 2 14 C2 12.68 2 11.36 2 10 C1.68770276 8.66158328 1.35169068 7.32860925 1 6 C0.65421232 4.00211562 0.31856451 2.00240549 0 0 Z " fill="#4F3C28" transform="translate(16,4)"/>
<path d="M0 0 C0.99 0.66 1.98 1.32 3 2 C2.67 2.99 2.34 3.98 2 5 C1.01 5 0.02 5 -1 5 C-1.33 4.34 -1.66 3.68 -2 3 C-2.99 2.67 -3.98 2.34 -5 2 C-4.67 2.928125 -4.34 3.85625 -4 4.8125 C-3 8 -3 8 -3 11 C-2.34 11.66 -1.68 12.32 -1 13 C-1.99 14.98 -2.98 16.96 -4 19 C-4.66 19 -5.32 19 -6 19 C-6.36279456 17.71073008 -6.71496698 16.41846728 -7.0625 15.125 C-7.25972656 14.40570313 -7.45695313 13.68640625 -7.66015625 12.9453125 C-8 11 -8 11 -7 9 C-7.09723451 7.00978479 -7.09723451 7.00978479 -7.4375 4.875 C-7.623125 3.59625 -7.80875 2.3175 -8 1 C-5.22899606 -0.38550197 -3.0665294 -0.1877467 0 0 Z " fill="#D08F18" transform="translate(21,2)"/>
<path d="M0 0 C2.71694923 4.07542384 3.42831346 8.23446985 2.68359375 13.04296875 C2.1875 14.9375 2.1875 14.9375 1 18 C0.34 18.33 -0.32 18.66 -1 19 C-0.95875 18.236875 -0.9175 17.47375 -0.875 16.6875 C-0.77919176 13.77281584 -0.77919176 13.77281584 -3 11 C-2.67 10.34 -2.34 9.68 -2 9 C-1.95977609 6.6670134 -1.95679753 4.33293334 -2 2 C-1.34 2 -0.68 2 0 2 C0 1.34 0 0.68 0 0 Z " fill="#A08A42" transform="translate(27,7)"/>
<path d="M0 0 C0.99 0 1.98 0 3 0 C3 0.66 3 1.32 3 2 C2.34 2 1.68 2 1 2 C1.20625 3.27875 1.4125 4.5575 1.625 5.875 C1.9765625 8.0546875 1.9765625 8.0546875 2 10 C1.34 10.66 0.68 11.32 0 12 C-0.99 12 -1.98 12 -3 12 C-3.33 12.66 -3.66 13.32 -4 14 C-4 13.01 -4 12.02 -4 11 C-4.66 11 -5.32 11 -6 11 C-4.18690997 7.22272911 -2.0926741 3.62730178 0 0 Z " fill="#383321" transform="translate(24,7)"/>
<path d="M0 0 C0.66 0.33 1.32 0.66 2 1 C1.67 2.65 1.34 4.3 1 6 C-2.3 6 -5.6 6 -9 6 C-9 4.35 -9 2.7 -9 1 C-8.2575 1.20625 -7.515 1.4125 -6.75 1.625 C-3.62463243 2.05118649 -2.67770324 1.47735351 0 0 Z " fill="#79552C" transform="translate(13,1)"/>
<path d="M0 0 C1.5625 1.125 1.5625 1.125 3 3 C2.81878333 7.25859163 1.81307141 9.82000623 -1 13 C-2 12 -2 12 -2.1875 8.1875 C-2.1585691 4.96459799 -1.82970185 2.74455277 0 0 Z " fill="#B58727" transform="translate(4,7)"/>
<path d="M0 0 C2.64 0.99 5.28 1.98 8 3 C5.3144406 5.6855594 2.62378672 6.06049974 -1 7 C-1.625 5.1875 -1.625 5.1875 -2 3 C-1.34 2.01 -0.68 1.02 0 0 Z " fill="#2A5844" transform="translate(6,14)"/>
<path d="M0 0 C3.125 0.1875 3.125 0.1875 6.125 2.1875 C5.795 3.1775 5.465 4.1675 5.125 5.1875 C4.135 5.1875 3.145 5.1875 2.125 5.1875 C1.795 4.5275 1.465 3.8675 1.125 3.1875 C0.135 2.8575 -0.855 2.5275 -1.875 2.1875 C-2.205 3.1775 -2.535 4.1675 -2.875 5.1875 C-3.535 4.8575 -4.195 4.5275 -4.875 4.1875 C-3.55648148 0.23194444 -3.55648148 0.23194444 0 0 Z " fill="#AA7A28" transform="translate(17.875,1.8125)"/>
<path d="M0 0 C1.50433594 0.01353516 1.50433594 0.01353516 3.0390625 0.02734375 C3.80992188 0.03894531 4.58078125 0.05054688 5.375 0.0625 C5.375 0.7225 5.375 1.3825 5.375 2.0625 C4.4675 2.206875 3.56 2.35125 2.625 2.5 C-0.48476531 2.94994201 -0.48476531 2.94994201 -2.8125 3.8125 C-3.410625 3.895 -4.00875 3.9775 -4.625 4.0625 C-6.375 2.625 -6.375 2.625 -7.625 1.0625 C-4.98041621 -0.25979189 -2.94738699 -0.03427194 0 0 Z " fill="#F2DFB3" transform="translate(11.625,-0.0625)"/>
<path d="M0 0 C0.99 0.66 1.98 1.32 3 2 C2.34 3.98 1.68 5.96 1 8 C1.99 8.33 2.98 8.66 4 9 C-0.455 9.495 -0.455 9.495 -5 10 C-4.01 9.01 -3.02 8.02 -2 7 C-1.34444881 4.47266765 -1.34444881 4.47266765 -1 2 C-0.67 1.34 -0.34 0.68 0 0 Z " fill="#515643" transform="translate(24,19)"/>
<path d="M0 0 C1.32 0 2.64 0 4 0 C4.33 1.65 4.66 3.3 5 5 C3.35 5.33 1.7 5.66 0 6 C-0.38218767 4.34385343 -0.71395102 2.67542976 -1 1 C-0.67 0.67 -0.34 0.34 0 0 Z " fill="#3A3325" transform="translate(10,7)"/>
<path d="M0 0 C0.66 0 1.32 0 2 0 C3.35439668 2.70879335 3.06501451 5.00933268 3 8 C2.01 7.67 1.02 7.34 0 7 C0 4.69 0 2.38 0 0 Z " fill="#BE7F0F" transform="translate(25,9)"/>
<path d="M0 0 C1.9375 0.3125 1.9375 0.3125 4 1 C5 4 5 4 4 7 C3.34 7 2.68 7 2 7 C1.34 4.69 0.68 2.38 0 0 Z " fill="#DA9612" transform="translate(13,14)"/>
<path d="M0 0 C1.32 0 2.64 0 4 0 C4 1.98 4 3.96 4 6 C2.68 5.67 1.36 5.34 0 5 C0 3.33333333 0 1.66666667 0 0 Z " fill="#E4BF6B" transform="translate(5,21)"/>
<path d="M0 0 C0.66 0.66 1.32 1.32 2 2 C1.34 2.66 0.68 3.32 0 4 C-0.99 4 -1.98 4 -3 4 C-3.33 4.66 -3.66 5.32 -4 6 C-4 5.01 -4 4.02 -4 3 C-4.66 2.67 -5.32 2.34 -6 2 C-4.02 1.34 -2.04 0.68 0 0 Z " fill="#1D5D73" transform="translate(24,15)"/>
</svg>
